<mxfile host="app.diagrams.net" modified="2023-07-26T17:49:00.164Z" agent="Mozilla/5.0 (Windows NT 10.0; Win64; x64) AppleWebKit/537.36 (KHTML, like Gecko) Chrome/115.0.0.0 Safari/537.36" etag="ufhDFKboEHimB3fhFTgv" version="21.6.5" type="device">
  <diagram name="Página-1" id="NwL9ZyEy5V__ZF0IZoAi">
    <mxGraphModel dx="1050" dy="574" grid="1" gridSize="10" guides="1" tooltips="1" connect="1" arrows="1" fold="1" page="1" pageScale="1" pageWidth="827" pageHeight="1169" math="0" shadow="0">
      <root>
        <mxCell id="0" />
        <mxCell id="1" parent="0" />
        <mxCell id="kESAH-FwW5H9qvexnYno-1" value="Empresa" style="rounded=0;whiteSpace=wrap;html=1;" parent="1" vertex="1">
          <mxGeometry y="332.5" width="75" height="40" as="geometry" />
        </mxCell>
        <mxCell id="kESAH-FwW5H9qvexnYno-2" value="Artistas" style="rounded=0;whiteSpace=wrap;html=1;" parent="1" vertex="1">
          <mxGeometry x="155" y="510" width="120" height="60" as="geometry" />
        </mxCell>
        <mxCell id="kESAH-FwW5H9qvexnYno-3" value="Álbuns" style="rounded=0;whiteSpace=wrap;html=1;" parent="1" vertex="1">
          <mxGeometry x="155" y="720" width="120" height="60" as="geometry" />
        </mxCell>
        <mxCell id="kESAH-FwW5H9qvexnYno-4" value="Título" style="ellipse;whiteSpace=wrap;html=1;" parent="1" vertex="1">
          <mxGeometry x="353" y="730" width="100" height="50" as="geometry" />
        </mxCell>
        <mxCell id="kESAH-FwW5H9qvexnYno-5" value="DataLançamento" style="ellipse;whiteSpace=wrap;html=1;" parent="1" vertex="1">
          <mxGeometry x="351" y="960" width="100" height="50" as="geometry" />
        </mxCell>
        <mxCell id="kESAH-FwW5H9qvexnYno-6" value="localização" style="ellipse;whiteSpace=wrap;html=1;" parent="1" vertex="1">
          <mxGeometry x="353" y="645" width="100" height="50" as="geometry" />
        </mxCell>
        <mxCell id="kESAH-FwW5H9qvexnYno-7" value="Estilos" style="ellipse;whiteSpace=wrap;html=1;" parent="1" vertex="1">
          <mxGeometry x="355" y="800" width="92" height="50" as="geometry" />
        </mxCell>
        <mxCell id="kESAH-FwW5H9qvexnYno-8" value="Usuário" style="rounded=0;whiteSpace=wrap;html=1;" parent="1" vertex="1">
          <mxGeometry x="710" y="333.75" width="110" height="50" as="geometry" />
        </mxCell>
        <mxCell id="kESAH-FwW5H9qvexnYno-9" value="Email" style="ellipse;whiteSpace=wrap;html=1;" parent="1" vertex="1">
          <mxGeometry x="580" y="484.5" width="90" height="41" as="geometry" />
        </mxCell>
        <mxCell id="kESAH-FwW5H9qvexnYno-11" value="Nome" style="ellipse;whiteSpace=wrap;html=1;" parent="1" vertex="1">
          <mxGeometry x="353" y="565" width="100" height="50" as="geometry" />
        </mxCell>
        <mxCell id="kESAH-FwW5H9qvexnYno-13" value="Senha&amp;nbsp;" style="rounded=0;whiteSpace=wrap;html=1;" parent="1" vertex="1">
          <mxGeometry x="530" y="340" width="90" height="40" as="geometry" />
        </mxCell>
        <mxCell id="kESAH-FwW5H9qvexnYno-14" value="TipoPermissão" style="rounded=0;whiteSpace=wrap;html=1;" parent="1" vertex="1">
          <mxGeometry x="361" y="340" width="80" height="40" as="geometry" />
        </mxCell>
        <mxCell id="kESAH-FwW5H9qvexnYno-15" value="Possui" style="rhombus;whiteSpace=wrap;html=1;" parent="1" vertex="1">
          <mxGeometry x="92.5" y="325" width="60" height="55" as="geometry" />
        </mxCell>
        <mxCell id="kESAH-FwW5H9qvexnYno-17" value="Possui" style="rhombus;whiteSpace=wrap;html=1;" parent="1" vertex="1">
          <mxGeometry x="630" y="325" width="70" height="70" as="geometry" />
        </mxCell>
        <mxCell id="kESAH-FwW5H9qvexnYno-18" value="Plataforma" style="rounded=0;whiteSpace=wrap;html=1;" parent="1" vertex="1">
          <mxGeometry x="175" y="327.5" width="100" height="50" as="geometry" />
        </mxCell>
        <mxCell id="kESAH-FwW5H9qvexnYno-19" value="Possui" style="rhombus;whiteSpace=wrap;html=1;" parent="1" vertex="1">
          <mxGeometry x="175" y="615" width="80" height="80" as="geometry" />
        </mxCell>
        <mxCell id="kESAH-FwW5H9qvexnYno-20" value="Possui" style="rhombus;whiteSpace=wrap;html=1;" parent="1" vertex="1">
          <mxGeometry x="450" y="332.5" width="56" height="55" as="geometry" />
        </mxCell>
        <mxCell id="kESAH-FwW5H9qvexnYno-21" value="Possui" style="rhombus;whiteSpace=wrap;html=1;" parent="1" vertex="1">
          <mxGeometry x="190" y="410" width="70" height="70" as="geometry" />
        </mxCell>
        <mxCell id="kESAH-FwW5H9qvexnYno-22" value="Possui" style="rhombus;whiteSpace=wrap;html=1;" parent="1" vertex="1">
          <mxGeometry x="293" y="336.25" width="52" height="47.5" as="geometry" />
        </mxCell>
        <mxCell id="kESAH-FwW5H9qvexnYno-23" value="Administrador&amp;nbsp;" style="ellipse;whiteSpace=wrap;html=1;" parent="1" vertex="1">
          <mxGeometry x="270" y="230" width="80" height="40" as="geometry" />
        </mxCell>
        <mxCell id="kESAH-FwW5H9qvexnYno-24" value="Comum" style="ellipse;whiteSpace=wrap;html=1;" parent="1" vertex="1">
          <mxGeometry x="395" y="230" width="85" height="40" as="geometry" />
        </mxCell>
        <mxCell id="kESAH-FwW5H9qvexnYno-25" value="Nome" style="ellipse;whiteSpace=wrap;html=1;" parent="1" vertex="1">
          <mxGeometry x="715" y="480" width="100" height="50" as="geometry" />
        </mxCell>
        <mxCell id="kESAH-FwW5H9qvexnYno-26" value="QuantidadeMinutos" style="ellipse;whiteSpace=wrap;html=1;" parent="1" vertex="1">
          <mxGeometry x="346" y="870" width="110" height="60" as="geometry" />
        </mxCell>
        <mxCell id="kESAH-FwW5H9qvexnYno-27" value="Possui" style="rhombus;whiteSpace=wrap;html=1;" parent="1" vertex="1">
          <mxGeometry x="180" y="810" width="70" height="60" as="geometry" />
        </mxCell>
        <mxCell id="kESAH-FwW5H9qvexnYno-31" value="Visualização" style="rounded=0;whiteSpace=wrap;html=1;" parent="1" vertex="1">
          <mxGeometry x="155" y="910" width="120" height="60" as="geometry" />
        </mxCell>
        <mxCell id="kESAH-FwW5H9qvexnYno-32" value="Ativa" style="ellipse;whiteSpace=wrap;html=1;" parent="1" vertex="1">
          <mxGeometry x="75" y="1020" width="95" height="50" as="geometry" />
        </mxCell>
        <mxCell id="kESAH-FwW5H9qvexnYno-33" value="Não Ativa" style="ellipse;whiteSpace=wrap;html=1;" parent="1" vertex="1">
          <mxGeometry x="222" y="1020" width="100" height="50" as="geometry" />
        </mxCell>
        <mxCell id="kESAH-FwW5H9qvexnYno-34" value="" style="endArrow=none;html=1;rounded=0;entryX=0;entryY=0.5;entryDx=0;entryDy=0;exitX=1;exitY=0.5;exitDx=0;exitDy=0;" parent="1" source="kESAH-FwW5H9qvexnYno-1" target="kESAH-FwW5H9qvexnYno-15" edge="1">
          <mxGeometry width="50" height="50" relative="1" as="geometry">
            <mxPoint x="80" y="360" as="sourcePoint" />
            <mxPoint x="90" y="360" as="targetPoint" />
          </mxGeometry>
        </mxCell>
        <mxCell id="kESAH-FwW5H9qvexnYno-36" value="" style="endArrow=none;html=1;rounded=0;entryX=0;entryY=0.5;entryDx=0;entryDy=0;exitX=1;exitY=0.5;exitDx=0;exitDy=0;" parent="1" source="kESAH-FwW5H9qvexnYno-15" target="kESAH-FwW5H9qvexnYno-18" edge="1">
          <mxGeometry width="50" height="50" relative="1" as="geometry">
            <mxPoint x="150" y="350" as="sourcePoint" />
            <mxPoint x="200" y="300" as="targetPoint" />
          </mxGeometry>
        </mxCell>
        <mxCell id="kESAH-FwW5H9qvexnYno-37" value="" style="endArrow=none;html=1;rounded=0;entryX=0;entryY=0.5;entryDx=0;entryDy=0;" parent="1" target="kESAH-FwW5H9qvexnYno-22" edge="1">
          <mxGeometry width="50" height="50" relative="1" as="geometry">
            <mxPoint x="275" y="360" as="sourcePoint" />
            <mxPoint x="325" y="310" as="targetPoint" />
          </mxGeometry>
        </mxCell>
        <mxCell id="kESAH-FwW5H9qvexnYno-38" value="" style="endArrow=none;html=1;rounded=0;entryX=0.5;entryY=1;entryDx=0;entryDy=0;" parent="1" target="kESAH-FwW5H9qvexnYno-24" edge="1">
          <mxGeometry width="50" height="50" relative="1" as="geometry">
            <mxPoint x="400" y="340" as="sourcePoint" />
            <mxPoint x="445" y="292.5" as="targetPoint" />
          </mxGeometry>
        </mxCell>
        <mxCell id="kESAH-FwW5H9qvexnYno-39" value="" style="endArrow=none;html=1;rounded=0;entryX=0.6;entryY=1.075;entryDx=0;entryDy=0;entryPerimeter=0;" parent="1" target="kESAH-FwW5H9qvexnYno-23" edge="1">
          <mxGeometry width="50" height="50" relative="1" as="geometry">
            <mxPoint x="390" y="340" as="sourcePoint" />
            <mxPoint x="423" y="270" as="targetPoint" />
          </mxGeometry>
        </mxCell>
        <mxCell id="kESAH-FwW5H9qvexnYno-40" value="" style="endArrow=none;html=1;rounded=0;entryX=0;entryY=0.5;entryDx=0;entryDy=0;" parent="1" target="kESAH-FwW5H9qvexnYno-14" edge="1">
          <mxGeometry width="50" height="50" relative="1" as="geometry">
            <mxPoint x="345" y="360" as="sourcePoint" />
            <mxPoint x="395" y="310" as="targetPoint" />
          </mxGeometry>
        </mxCell>
        <mxCell id="kESAH-FwW5H9qvexnYno-41" value="" style="endArrow=none;html=1;rounded=0;entryX=0;entryY=0.5;entryDx=0;entryDy=0;exitX=1;exitY=0.5;exitDx=0;exitDy=0;" parent="1" source="kESAH-FwW5H9qvexnYno-20" target="kESAH-FwW5H9qvexnYno-13" edge="1">
          <mxGeometry width="50" height="50" relative="1" as="geometry">
            <mxPoint x="490" y="375" as="sourcePoint" />
            <mxPoint x="540" y="325" as="targetPoint" />
          </mxGeometry>
        </mxCell>
        <mxCell id="kESAH-FwW5H9qvexnYno-42" value="" style="endArrow=none;html=1;rounded=0;entryX=0;entryY=0.5;entryDx=0;entryDy=0;" parent="1" target="kESAH-FwW5H9qvexnYno-17" edge="1">
          <mxGeometry width="50" height="50" relative="1" as="geometry">
            <mxPoint x="620" y="360" as="sourcePoint" />
            <mxPoint x="670" y="310" as="targetPoint" />
          </mxGeometry>
        </mxCell>
        <mxCell id="kESAH-FwW5H9qvexnYno-43" value="" style="endArrow=none;html=1;rounded=0;entryX=0;entryY=0.5;entryDx=0;entryDy=0;" parent="1" target="kESAH-FwW5H9qvexnYno-20" edge="1">
          <mxGeometry width="50" height="50" relative="1" as="geometry">
            <mxPoint x="441" y="360" as="sourcePoint" />
            <mxPoint x="491" y="310" as="targetPoint" />
          </mxGeometry>
        </mxCell>
        <mxCell id="kESAH-FwW5H9qvexnYno-44" value="" style="endArrow=none;html=1;rounded=0;entryX=0;entryY=0.5;entryDx=0;entryDy=0;" parent="1" target="kESAH-FwW5H9qvexnYno-8" edge="1">
          <mxGeometry width="50" height="50" relative="1" as="geometry">
            <mxPoint x="700" y="359" as="sourcePoint" />
            <mxPoint x="740" y="310" as="targetPoint" />
          </mxGeometry>
        </mxCell>
        <mxCell id="kESAH-FwW5H9qvexnYno-45" value="" style="endArrow=none;html=1;rounded=0;entryX=0.5;entryY=1;entryDx=0;entryDy=0;exitX=0.5;exitY=0;exitDx=0;exitDy=0;" parent="1" source="kESAH-FwW5H9qvexnYno-21" target="kESAH-FwW5H9qvexnYno-18" edge="1">
          <mxGeometry width="50" height="50" relative="1" as="geometry">
            <mxPoint x="222" y="410" as="sourcePoint" />
            <mxPoint x="272" y="360" as="targetPoint" />
          </mxGeometry>
        </mxCell>
        <mxCell id="kESAH-FwW5H9qvexnYno-46" value="" style="endArrow=none;html=1;rounded=0;entryX=0.5;entryY=1;entryDx=0;entryDy=0;exitX=0.583;exitY=0;exitDx=0;exitDy=0;exitPerimeter=0;" parent="1" source="kESAH-FwW5H9qvexnYno-2" target="kESAH-FwW5H9qvexnYno-21" edge="1">
          <mxGeometry width="50" height="50" relative="1" as="geometry">
            <mxPoint x="220" y="510" as="sourcePoint" />
            <mxPoint x="260" y="460" as="targetPoint" />
          </mxGeometry>
        </mxCell>
        <mxCell id="kESAH-FwW5H9qvexnYno-47" value="" style="endArrow=none;html=1;rounded=0;exitX=0.5;exitY=0;exitDx=0;exitDy=0;" parent="1" source="kESAH-FwW5H9qvexnYno-25" target="kESAH-FwW5H9qvexnYno-8" edge="1">
          <mxGeometry width="50" height="50" relative="1" as="geometry">
            <mxPoint x="760" y="480" as="sourcePoint" />
            <mxPoint x="810" y="430" as="targetPoint" />
          </mxGeometry>
        </mxCell>
        <mxCell id="kESAH-FwW5H9qvexnYno-48" value="" style="endArrow=none;html=1;rounded=0;entryX=0;entryY=0.5;entryDx=0;entryDy=0;exitX=1;exitY=0.5;exitDx=0;exitDy=0;" parent="1" source="kESAH-FwW5H9qvexnYno-9" target="kESAH-FwW5H9qvexnYno-25" edge="1">
          <mxGeometry width="50" height="50" relative="1" as="geometry">
            <mxPoint x="670" y="510" as="sourcePoint" />
            <mxPoint x="720" y="460" as="targetPoint" />
          </mxGeometry>
        </mxCell>
        <mxCell id="kESAH-FwW5H9qvexnYno-49" value="" style="endArrow=none;html=1;rounded=0;entryX=0.5;entryY=1;entryDx=0;entryDy=0;exitX=0.5;exitY=0;exitDx=0;exitDy=0;" parent="1" source="kESAH-FwW5H9qvexnYno-19" target="kESAH-FwW5H9qvexnYno-2" edge="1">
          <mxGeometry width="50" height="50" relative="1" as="geometry">
            <mxPoint x="210" y="610" as="sourcePoint" />
            <mxPoint x="260" y="560" as="targetPoint" />
          </mxGeometry>
        </mxCell>
        <mxCell id="kESAH-FwW5H9qvexnYno-50" value="" style="endArrow=none;html=1;rounded=0;entryX=0.5;entryY=1;entryDx=0;entryDy=0;exitX=0.5;exitY=0;exitDx=0;exitDy=0;" parent="1" source="kESAH-FwW5H9qvexnYno-31" target="kESAH-FwW5H9qvexnYno-27" edge="1">
          <mxGeometry width="50" height="50" relative="1" as="geometry">
            <mxPoint x="200" y="910" as="sourcePoint" />
            <mxPoint x="250" y="860" as="targetPoint" />
          </mxGeometry>
        </mxCell>
        <mxCell id="kESAH-FwW5H9qvexnYno-51" value="" style="endArrow=none;html=1;rounded=0;exitX=0.5;exitY=0;exitDx=0;exitDy=0;" parent="1" source="kESAH-FwW5H9qvexnYno-33" edge="1">
          <mxGeometry width="50" height="50" relative="1" as="geometry">
            <mxPoint x="170" y="1020" as="sourcePoint" />
            <mxPoint x="220" y="970" as="targetPoint" />
          </mxGeometry>
        </mxCell>
        <mxCell id="kESAH-FwW5H9qvexnYno-52" value="" style="endArrow=none;html=1;rounded=0;entryX=0.5;entryY=1;entryDx=0;entryDy=0;" parent="1" target="kESAH-FwW5H9qvexnYno-31" edge="1">
          <mxGeometry width="50" height="50" relative="1" as="geometry">
            <mxPoint x="125" y="1020" as="sourcePoint" />
            <mxPoint x="175" y="970" as="targetPoint" />
          </mxGeometry>
        </mxCell>
        <mxCell id="kESAH-FwW5H9qvexnYno-55" value="" style="endArrow=none;html=1;rounded=0;entryX=0.5;entryY=1;entryDx=0;entryDy=0;exitX=0.5;exitY=0;exitDx=0;exitDy=0;" parent="1" source="kESAH-FwW5H9qvexnYno-27" target="kESAH-FwW5H9qvexnYno-3" edge="1">
          <mxGeometry width="50" height="50" relative="1" as="geometry">
            <mxPoint x="210" y="810" as="sourcePoint" />
            <mxPoint x="260" y="760" as="targetPoint" />
          </mxGeometry>
        </mxCell>
        <mxCell id="kESAH-FwW5H9qvexnYno-56" value="" style="endArrow=none;html=1;rounded=0;entryX=0.5;entryY=1;entryDx=0;entryDy=0;exitX=0.5;exitY=0;exitDx=0;exitDy=0;" parent="1" source="kESAH-FwW5H9qvexnYno-3" target="kESAH-FwW5H9qvexnYno-19" edge="1">
          <mxGeometry width="50" height="50" relative="1" as="geometry">
            <mxPoint x="210" y="720" as="sourcePoint" />
            <mxPoint x="260" y="670" as="targetPoint" />
          </mxGeometry>
        </mxCell>
        <mxCell id="kESAH-FwW5H9qvexnYno-57" value="" style="endArrow=none;html=1;rounded=0;entryX=0;entryY=0.5;entryDx=0;entryDy=0;exitX=0.992;exitY=0.617;exitDx=0;exitDy=0;exitPerimeter=0;" parent="1" source="kESAH-FwW5H9qvexnYno-3" target="kESAH-FwW5H9qvexnYno-4" edge="1">
          <mxGeometry width="50" height="50" relative="1" as="geometry">
            <mxPoint x="280" y="760" as="sourcePoint" />
            <mxPoint x="325" y="710" as="targetPoint" />
          </mxGeometry>
        </mxCell>
        <mxCell id="kESAH-FwW5H9qvexnYno-58" value="" style="endArrow=none;html=1;rounded=0;entryX=0.5;entryY=1;entryDx=0;entryDy=0;exitX=0.5;exitY=0;exitDx=0;exitDy=0;" parent="1" source="kESAH-FwW5H9qvexnYno-6" target="kESAH-FwW5H9qvexnYno-11" edge="1">
          <mxGeometry width="50" height="50" relative="1" as="geometry">
            <mxPoint x="395" y="645" as="sourcePoint" />
            <mxPoint x="445" y="595" as="targetPoint" />
          </mxGeometry>
        </mxCell>
        <mxCell id="kESAH-FwW5H9qvexnYno-59" value="" style="endArrow=none;html=1;rounded=0;exitX=0.5;exitY=0;exitDx=0;exitDy=0;entryX=0.5;entryY=0.9;entryDx=0;entryDy=0;entryPerimeter=0;" parent="1" source="kESAH-FwW5H9qvexnYno-4" target="kESAH-FwW5H9qvexnYno-6" edge="1">
          <mxGeometry width="50" height="50" relative="1" as="geometry">
            <mxPoint x="391" y="730" as="sourcePoint" />
            <mxPoint x="403" y="700" as="targetPoint" />
            <Array as="points">
              <mxPoint x="403" y="710" />
            </Array>
          </mxGeometry>
        </mxCell>
        <mxCell id="kESAH-FwW5H9qvexnYno-60" value="" style="endArrow=none;html=1;rounded=0;exitX=0.5;exitY=0;exitDx=0;exitDy=0;" parent="1" source="kESAH-FwW5H9qvexnYno-7" edge="1">
          <mxGeometry width="50" height="50" relative="1" as="geometry">
            <mxPoint x="389" y="800" as="sourcePoint" />
            <mxPoint x="400" y="780" as="targetPoint" />
          </mxGeometry>
        </mxCell>
        <mxCell id="-N-_DEce2OBmtT_qf4MW-1" value="" style="endArrow=none;html=1;rounded=0;entryX=0.5;entryY=1;entryDx=0;entryDy=0;exitX=0.5;exitY=0;exitDx=0;exitDy=0;" edge="1" parent="1" source="kESAH-FwW5H9qvexnYno-5" target="kESAH-FwW5H9qvexnYno-26">
          <mxGeometry width="50" height="50" relative="1" as="geometry">
            <mxPoint x="397" y="960" as="sourcePoint" />
            <mxPoint x="447" y="910" as="targetPoint" />
          </mxGeometry>
        </mxCell>
        <mxCell id="-N-_DEce2OBmtT_qf4MW-2" value="1" style="text;html=1;align=center;verticalAlign=middle;resizable=0;points=[];autosize=1;strokeColor=none;fillColor=none;" vertex="1" parent="1">
          <mxGeometry x="135" y="308" width="30" height="30" as="geometry" />
        </mxCell>
        <mxCell id="-N-_DEce2OBmtT_qf4MW-3" value="N" style="text;html=1;align=center;verticalAlign=middle;resizable=0;points=[];autosize=1;strokeColor=none;fillColor=none;" vertex="1" parent="1">
          <mxGeometry x="245" y="458" width="30" height="30" as="geometry" />
        </mxCell>
        <mxCell id="-N-_DEce2OBmtT_qf4MW-4" value="N" style="text;html=1;align=center;verticalAlign=middle;resizable=0;points=[];autosize=1;strokeColor=none;fillColor=none;" vertex="1" parent="1">
          <mxGeometry x="225" y="668" width="30" height="30" as="geometry" />
        </mxCell>
        <mxCell id="-N-_DEce2OBmtT_qf4MW-5" value="1" style="text;html=1;align=center;verticalAlign=middle;resizable=0;points=[];autosize=1;strokeColor=none;fillColor=none;" vertex="1" parent="1">
          <mxGeometry x="225" y="848" width="30" height="30" as="geometry" />
        </mxCell>
        <mxCell id="-N-_DEce2OBmtT_qf4MW-7" value="1" style="text;html=1;align=center;verticalAlign=middle;resizable=0;points=[];autosize=1;strokeColor=none;fillColor=none;" vertex="1" parent="1">
          <mxGeometry x="65" y="318" width="30" height="30" as="geometry" />
        </mxCell>
        <mxCell id="-N-_DEce2OBmtT_qf4MW-8" value="1" style="text;html=1;align=center;verticalAlign=middle;resizable=0;points=[];autosize=1;strokeColor=none;fillColor=none;" vertex="1" parent="1">
          <mxGeometry x="685" y="318" width="30" height="30" as="geometry" />
        </mxCell>
        <mxCell id="-N-_DEce2OBmtT_qf4MW-9" value="1" style="text;html=1;align=center;verticalAlign=middle;resizable=0;points=[];autosize=1;strokeColor=none;fillColor=none;" vertex="1" parent="1">
          <mxGeometry x="615" y="308" width="30" height="30" as="geometry" />
        </mxCell>
        <mxCell id="-N-_DEce2OBmtT_qf4MW-10" value="1" style="text;html=1;align=center;verticalAlign=middle;resizable=0;points=[];autosize=1;strokeColor=none;fillColor=none;" vertex="1" parent="1">
          <mxGeometry x="495" y="318" width="30" height="30" as="geometry" />
        </mxCell>
        <mxCell id="-N-_DEce2OBmtT_qf4MW-11" value="1" style="text;html=1;align=center;verticalAlign=middle;resizable=0;points=[];autosize=1;strokeColor=none;fillColor=none;" vertex="1" parent="1">
          <mxGeometry x="775" y="388" width="30" height="30" as="geometry" />
        </mxCell>
        <mxCell id="-N-_DEce2OBmtT_qf4MW-12" value="N" style="text;html=1;align=center;verticalAlign=middle;resizable=0;points=[];autosize=1;strokeColor=none;fillColor=none;" vertex="1" parent="1">
          <mxGeometry x="275" y="718" width="30" height="30" as="geometry" />
        </mxCell>
        <mxCell id="-N-_DEce2OBmtT_qf4MW-13" value="1" style="text;html=1;align=center;verticalAlign=middle;resizable=0;points=[];autosize=1;strokeColor=none;fillColor=none;" vertex="1" parent="1">
          <mxGeometry x="255" y="978" width="30" height="30" as="geometry" />
        </mxCell>
      </root>
    </mxGraphModel>
  </diagram>
</mxfile>
